<?xml version="1.0" encoding="utf-8"?>
<!-- Generator: Adobe Illustrator 23.0.0, SVG Export Plug-In . SVG Version: 6.00 Build 0)  -->
<svg version="1.1" id="Layer_1" xmlns:xodm="http://www.corel.com/coreldraw/odm/2003"
	 xmlns="http://www.w3.org/2000/svg" xmlns:xlink="http://www.w3.org/1999/xlink" x="0px" y="0px" viewBox="0 0 734 240"
	 style="enable-background:new 0 0 734 240;" xml:space="preserve">
<style type="text/css">
	.st0{fill:#FFFFFF;}
	.st1{fill-rule:evenodd;clip-rule:evenodd;fill:#FFFFFF;}
</style>
<path class="st0" d="M22.6,24.1L22.6,24.1C54.2,8,87,0,121,0c0.2,0,0.5,0,0.7,0c0.2,0,0.5,0,0.7,0c33.9,0,66.8,8,98.4,24.1l0,0
	l1.9,2c12.9,30.4,20.3,61.4,20.6,93c0,0.6,0,1.1,0,1.7v2.2c-0.1,30.3-6.6,61.2-20.6,92.6l-2.2,2c-32.9,14.6-65.9,22-98.9,22.3
	c-33-0.4-65.9-7.7-98.9-22.3l-2.2-2C6.6,184.2,0.1,153.3,0,123v-2.2c0-0.6,0-1.1,0-1.7c0.4-31.5,7.7-62.5,20.6-93
	C20.6,26.2,22.6,24.1,22.6,24.1z M121.7,8.2c-0.2,0-0.5,0-0.7,0c-32.2,0-63.3,7.5-93.3,22.6c-12.2,29-19.1,58.4-19.4,88.5
	c-0.5,29.8,5.7,60.4,19.3,91.5c31.4,13.6,62.8,20.6,94.2,21c31.4-0.4,62.8-7.4,94.2-21c13.6-31.1,19.8-61.7,19.3-91.5
	c-0.4-30.1-7.2-59.5-19.4-88.5c-30.1-15.1-61.1-22.6-93.3-22.6C122.2,8.2,121.9,8.2,121.7,8.2z"/>
<path class="st1" d="M123.9,187c-1.7-23.1-0.6-47.1-7.5-69.1C110,97.4,85.7,85.7,85.2,63.1c-0.5-17.6,12.9-38,38-38
	c23.5-0.1,38.1,17,39.8,36.1c2,22.1-24.7,36.9-31.7,57.9C124.1,140.6,126.2,164.4,123.9,187z"/>
<path class="st1" d="M133.2,181.4c-1-20-1-39.2,4.6-56.3c6.1-19.3,18.9-35.6,38.5-40.9c13.4-3.6,33.1,12.1,29.9,28.1
	c-2.7,12.9-15.6,28.1-36.3,29.8c-9.7,0.8-13.8,8.6-19.8,13c27-2.7,44.5-13.3,56.7-24.4c1.8,9.4,3,25.2-4.3,30.7
	c-14.5,10.3-27.9,1.9-44.9,6.8C148,171.1,142.1,177.1,133.2,181.4L133.2,181.4z"/>
<path class="st1" d="M114.7,181.4c1.1-20,1-39.2-4.5-56.3c-6.2-19.3-18.9-35.6-38.5-40.9c-13.4-3.6-33.2,12.1-29.9,28.1
	c2.7,12.9,15.6,28.1,36.3,29.8c9.5,0.8,13.8,8.6,19.8,13c-27.2-2.7-44.5-13.3-56.7-24.4c-1.8,9.4-3,25.2,4.3,30.7
	c14.5,10.3,27.9,1.9,44.9,6.8C100,171.1,105.7,177.1,114.7,181.4z"/>
<path class="st1" d="M179,211.3V208l2.4-0.6l-2.4-3.6v-6l10.9,15.1l-3.9,1l-2.7-3.7L179,211.3L179,211.3z M179,197.7L179,197.7v6
	l-1.7-2.4l-0.7,7.2l2.4-0.6v3.3l-2.8,0.6l-0.5,4.5l-3.9,1l2.5-19.7l3.9-1L179,197.7L179,197.7z M143.1,221.8L143.1,221.8v-3.1h0.8
	c1.3-0.1,2.2-0.2,2.5-0.4c0.5-0.1,1-0.5,1.2-0.8c0.4-0.5,0.5-1,0.5-1.6c-0.1-0.6-0.2-1.1-0.6-1.4c-0.2-0.4-0.7-0.6-1.2-0.7
	c-0.5-0.1-1.6-0.1-3.3,0v-3.1c1,0,1.6-0.1,1.8-0.1c0.6-0.1,1.1-0.5,1.4-0.8s0.5-0.8,0.4-1.4c0-0.6-0.2-1.1-0.6-1.3
	c-0.2-0.4-0.7-0.6-1.4-0.6c-0.2,0-0.7,0-1.6,0.1v-3.1c1.3-0.1,2.3-0.1,2.9,0c0.7,0,1.4,0.3,2,0.6c0.6,0.2,1.1,0.7,1.6,1.3
	c0.4,0.6,0.6,1.3,0.7,2.2c0.1,0.8-0.1,1.7-0.5,2.4c-0.4,0.7-1,1.3-1.8,1.8c1.2,0.3,2.2,0.7,2.8,1.4c0.7,0.7,1.1,1.6,1.2,2.7
	c0,0.8-0.1,1.7-0.4,2.5c-0.4,0.8-0.8,1.4-1.4,2.1c-0.7,0.5-1.4,0.8-2.4,1.1c-0.6,0.1-2.2,0.2-4.5,0.5H143.1z M165.9,211.6
	L165.9,211.6l3.7,0.5c-0.2,2-0.8,3.7-1.9,4.9c-1.1,1.1-2.7,1.9-4.6,2.3c-2.4,0.4-4.6-0.1-6.4-1.4c-1.9-1.4-3-3.5-3.6-6.4
	c-0.5-3-0.1-5.5,1.2-7.5c1.2-1.9,3.1-3.1,5.7-3.6c2.3-0.4,4.1,0,5.8,1.1c1,0.6,1.8,1.6,2.4,3l-3.5,1.4c-0.4-0.8-1-1.6-1.7-1.9
	c-0.8-0.5-1.7-0.6-2.7-0.5c-1.3,0.2-2.3,1-3,2c-0.7,1.2-0.8,2.8-0.5,4.9c0.5,2.3,1.2,3.9,2.2,4.7c1,0.8,2.2,1.2,3.5,1
	c1-0.2,1.7-0.7,2.3-1.4C165.4,214,165.7,213,165.9,211.6L165.9,211.6z M143.1,203.2L143.1,203.2v3.1c-0.5,0-1,0.1-1.6,0.1l-2.2,0.3
	l0.4,4.2l2.5-0.2c0.2,0,0.6,0,0.8-0.1v3.1c0,0,0,0-0.1,0l-2.9,0.2l0.4,4.9l2.7-0.2v3.1l-6,0.6l-1.7-18.5l7.4-0.6
	C142.8,203.2,142.9,203.2,143.1,203.2L143.1,203.2z M119.8,215.4L119.8,215.4v-3.1c0.8,0,1.3-0.1,1.7-0.2c0.5-0.1,0.8-0.5,1.2-0.8
	c0.2-0.5,0.4-1,0.4-1.4c0.1-0.7-0.1-1.2-0.5-1.7c-0.4-0.5-0.8-0.7-1.4-0.8c-0.4,0-0.7-0.1-1.3-0.1v-3.1c1.8,0,2.9,0.1,3.5,0.4
	c1.1,0.2,1.9,0.8,2.7,1.8c0.7,1,1.1,2.2,1,3.6c0,1.1-0.2,2.1-0.6,2.9c-0.5,0.7-1,1.3-1.6,1.8c-0.7,0.4-1.3,0.6-2,0.8
	C121.9,215.4,121,215.4,119.8,215.4L119.8,215.4z M119.8,203.9L119.8,203.9v3.1c-0.4,0-0.8,0-1.4,0l-1.8-0.1v5.3h1.9
	c0.5,0,1,0,1.3,0v3.1c-0.2,0-0.6,0-1,0h-2.4l-0.1,7l-3.7-0.1l0.4-18.5l5.9,0.1C119.1,203.9,119.5,203.9,119.8,203.9z M84.9,213.6
	L84.9,213.6v-5.7c1.1,0.2,1.8,0.2,2.2,0.2c0.5-0.1,0.8-0.2,1.2-0.6c0.2-0.4,0.5-0.7,0.6-1.3s0-1.1-0.2-1.6c-0.2-0.5-0.7-0.7-1.3-1
	c-0.2-0.1-1.1-0.2-2.4-0.5V200l1.6,0.2c1.9,0.4,3.3,0.7,4.1,1.2c0.8,0.5,1.4,1.2,1.8,2.2c0.4,0.8,0.5,1.9,0.2,3
	c-0.2,1.3-0.8,2.4-1.8,3.1c-0.8,0.7-2.2,1.1-3.9,1.1c0.7,0.6,1.3,1.2,1.7,1.8c0.5,0.7,1,1.8,1.6,3.4l1.6,4l-4.3-0.8l-1.9-4.5
	C85.2,214.4,85.1,213.9,84.9,213.6L84.9,213.6z M95.5,202.1L95.5,202.1l3.6,0.4l-0.8,10c-0.1,1.6-0.1,2.7-0.1,3
	c0.1,0.8,0.5,1.4,1,1.9c0.6,0.6,1.3,0.8,2.4,1c1.1,0.1,1.9-0.1,2.4-0.5c0.6-0.4,1-0.8,1.2-1.4c0.1-0.6,0.2-1.7,0.4-3.1l0.8-10.3
	l3.7,0.4l-0.8,9.6c-0.1,2.3-0.4,3.9-0.7,4.7c-0.2,0.8-0.7,1.7-1.2,2.2c-0.6,0.6-1.4,1.1-2.4,1.3c-0.8,0.4-2,0.4-3.5,0.2
	c-1.8-0.1-3.1-0.5-4-1c-0.8-0.5-1.6-1.1-2-1.7c-0.5-0.7-0.7-1.4-0.8-2.2c-0.1-1.1-0.1-2.7,0-4.7L95.5,202.1z M66.2,207.5L66.2,207.5
	l0.7-3l7.8,2l-1.9,7.1c-1,0.6-2.2,1-3.9,1.1c-1.6,0.1-3,0-4.5-0.4c-1.9-0.5-3.5-1.3-4.6-2.4c-1.2-1.2-1.9-2.7-2.3-4.2
	c-0.2-1.7-0.2-3.4,0.2-5.1c0.5-1.8,1.3-3.4,2.5-4.7c1.1-1.2,2.5-1.9,4.2-2.3c1.3-0.4,2.9-0.2,4.6,0.2c2.2,0.6,3.9,1.4,4.8,2.8
	c1,1.2,1.4,2.8,1.3,4.5l-3.7-0.2c0-1-0.2-1.8-0.8-2.5c-0.6-0.6-1.3-1.2-2.4-1.4c-1.6-0.4-2.9-0.2-4.1,0.5c-1.2,0.7-2,2.2-2.6,4.1
	c-0.6,2.2-0.5,3.9,0.1,5.2c0.7,1.3,1.8,2.2,3.3,2.5c0.8,0.2,1.6,0.2,2.4,0.2c0.8-0.1,1.6-0.4,2.3-0.6l0.6-2.3L66.2,207.5L66.2,207.5
	z M84.9,200L84.9,200l-6.3-1.1l-3.1,18.2l3.6,0.6l1.3-7.6l0.8,0.1c0.8,0.1,1.4,0.4,1.8,0.5c0.4,0.2,0.6,0.6,1,1
	c0.1,0.4,0.5,1,0.8,1.8v-5.7c-0.4,0-0.7-0.1-1.2-0.1l-2.6-0.5l0.7-4.6l2.9,0.5c0.1,0,0.2,0,0.2,0V200z"/>
<path class="st1" d="M660.2,177.5v-34h15V83.5l-15,29.9V38.7H719l15,172.2h-58.8v-33.4H660.2z M660.2,38.7L660.2,38.7v74.7l-15,29.9
	h15v34H632l-11.6,31.6h-36.5v-39.4L624.6,82h-8.3l23.2-43.2L660.2,38.7L660.2,38.7z M583.9,96.1L583.9,96.1l18.2-43.2l-18.2-10.1
	V96.1z M438.9,79.6L438.9,79.6c0.8-4.9,0.8-9.8,0-14.4V79.6z M583.9,42.7L583.9,42.7v53.4l-2.4,5.8c-36-25.7-89.1-2.3-92.1,24.9
	c-3,28.4,18.6,51.3,73.8,34.2l-19,50.7c-72.8,8.1-101-20.8-105.3-54.4v-19.1c1.1-8.8,3.4-17.4,6.5-25.3
	c35.9-89.1,94-69.1,116.1-70.7l3.3-9.9L583.9,42.7L583.9,42.7z M583.9,169.7L583.9,169.7l-18.2,39.4h18.2V169.7z M373.5,208
	L373.5,208c39-7.7,77.3-54.6,38.9-91.9c15-8,24.3-22.3,26.6-36.6V65.2c-2.6-14.8-14.1-26.9-35.7-27.3l-29.7-0.6v33.1h12.3
	c13.2,0,11.5,34-4.9,34h-7.4v26.1c17.7,3.4,11.5,28,0,35.6L373.5,208L373.5,208z M438.9,138.1L438.9,138.1v19.1
	C438.2,150.9,438.2,144.5,438.9,138.1z M322.1,36.2L322.1,36.2l-24,46.6l10.7-0.8l-29,127.1h82.9c3.6,0,7.1-0.4,10.7-1.1v-41.9
	c-2,1.4-4.3,2.3-6.6,2.3H337l9.9-38.3h22.3c1.6,0,3,0.1,4.2,0.4v-26.1h-20.8l8.3-34h12.4V37.3L322.1,36.2L322.1,36.2z"/>
</svg>
