<?xml version="1.0" encoding="utf-8"?>
<!-- Generator: Adobe Illustrator 23.0.0, SVG Export Plug-In . SVG Version: 6.00 Build 0)  -->
<svg version="1.1" id="Layer_1" xmlns="http://www.w3.org/2000/svg" xmlns:xlink="http://www.w3.org/1999/xlink" x="0px" y="0px"
	 viewBox="0 0 175 57" style="enable-background:new 0 0 175 57;" xml:space="preserve">
<style type="text/css">
	.st0{fill-rule:evenodd;clip-rule:evenodd;fill:#FFFFFF;}
</style>
<path id="path3242" class="st0" d="M2.6,22.8l14.4,18.2L2.6,52.9V22.8L2.6,22.8z"/>
<path id="path3244" class="st0" d="M8.4,52.9l10.8-9.1l7.5,9.1H8.4z"/>
<path id="path3248" class="st0" d="M2.6,13l3.8,4.8l15.5,19.3l5-4c0,0-4.2-4.9-7-10.4c-5.5-10.7-1.6-17.3-1.6-17.3H2.6V13z"/>
<path id="path3250" class="st0" d="M24.1,40.1l5.1-4.2c0,0,4.9,6.4,10.5,7.9c7.4,2,10.7-2.9,10.7-2.9v11.9H34.1l3.7-3.2
	c0,0-1.9,1.3-6.6-2C28.4,45.8,24.1,40.1,24.1,40.1z"/>
<path id="path3262" class="st0" d="M24.5,5.4c0,0-1.6,2.2-0.5,7.6c1.2,5.8,6.2,11.9,6.2,11.8c0,0,0.3-6.1,3.9-9.7
	c7.6-7.6,16.3-3.1,16.3-3.1V5.4L24.5,5.4z"/>
<path id="path3298" class="st0" d="M50.4,20.1c0,0-4.8-4.1-9-4.1c-5.4,0-8.3,4.6-8.3,8c0,4.9,2.3,7.6,4.7,10c3.4,3.4,7.5,7,12.6,4.1
	C50.4,32.5,50.4,20.1,50.4,20.1z"/>
<path id="path3249" class="st0" d="M105.3,5.9h11.4c0,0,10.1,15.3,15,21.6c5,6.3,10.3,13.5,10.3,13.5s0-20.8,0-31.6
	c0-1.4-3.6-3.4-3.6-3.4h13.1c0,0-4.3,1.8-4.3,3.4c0,13.5,0,46,0,46s-4.1-2.3-8.8-7.7c-5.3-6.1-24-30.8-24-30.8s0,23.3,0,32
	c0,1.6,3.6,4.1,3.6,4.1h-12.7c0,0,3.5-2.5,3.5-4.1c0-11.7,0-28.7,0-39.5C108.8,7.8,105.3,5.9,105.3,5.9z"/>
<path id="path3267" class="st0" d="M158.9,5.9h14.6c0,0-3.9,1.9-3.9,3.4c0,10.8,0,28.7,0,39.5c0,1.7,3.9,4.1,3.9,4.1h-14.6
	c0,0,3.7-2.5,3.7-4.1c0-12.9,0-28.7,0-39.5C162.5,7.8,158.9,5.9,158.9,5.9z"/>
<path id="path3283" class="st0" d="M62.3,5.9c0,0,3.8,1.9,3.8,3.4c0,10.8,0,26.6,0,39.5c0,1.7-3.8,4.1-3.8,4.1l0,0
	c0,0,18.9,0,21.6,0c1.4,0,16.5-2.5,16.5-14.2S88.7,26,88.7,26s7.2-2,7.2-10C95.9,7.4,85.3,5.9,84,5.9C81.2,5.9,62.3,5.9,62.3,5.9z
	 M73.8,25.2V10.5c0,0,6.3,0,8.8,0c1.4,0,6.1,1.6,6.1,7.4c0,4.8-4.7,7.3-6.1,7.3C79.6,25.2,73.8,25.2,73.8,25.2z M73.8,29
	c0,0,8.8,0,10.1,0s9.3,2.1,9.3,9c0,7.1-8,9.6-9.3,9.6s-10.1,0-10.1,0V29z"/>
</svg>
